<svg width="209" height="209" viewBox="0 0 209 209" fill="none" xmlns="http://www.w3.org/2000/svg">
<path d="M30.1102 58.6978L26.8164 52.4655C18.851 37.3938 35.1866 21.0772 50.3326 29.0316L57.2739 32.6771C68.1074 38.3667 81.4674 32.8667 85.1134 21.206L87.3896 13.926C92.4705 -2.32393 115.547 -2.32394 120.628 13.926L122.497 19.905C126.139 31.5533 139.477 37.0569 150.308 31.3909L155.285 28.7873C170.419 20.8712 186.717 37.1503 178.79 52.2093L175.714 58.0531C170.019 68.8699 175.567 82.1806 187.265 85.7943L194.67 88.0818C211.008 93.129 211.008 116.177 194.67 121.224L187.16 123.544C175.45 127.162 169.906 140.495 175.624 151.314L178.545 156.841C186.51 171.912 170.174 188.229 155.028 180.274L150.369 177.827C139.535 172.138 126.175 177.638 122.529 189.298L120.628 195.38C115.547 211.63 92.4705 211.63 87.3896 195.38L85.1468 188.207C81.5047 176.559 68.1669 171.055 57.3356 176.721L50.0756 180.519C34.9425 188.435 18.6442 172.156 26.5713 157.097L30.019 150.547C35.713 139.73 30.1656 126.42 18.4677 122.806L13.3476 121.224C-2.99052 116.177 -2.99052 93.1291 13.3476 88.0818L18.5738 86.4674C30.2841 82.8498 35.8281 69.5169 30.1102 58.6978Z" stroke="#000577" stroke-width="2.18804" stroke-linecap="round" stroke-linejoin="round"/>
<circle cx="104.009" cy="104.65" r="37.9092" stroke="#000577" stroke-width="2.18804"/>
<circle cx="104.009" cy="104.651" r="58.5048" stroke="#A8ABFF" stroke-width="4.37608"/>
</svg>
