<svg width="207" height="206" viewBox="0 0 207 206" fill="none" xmlns="http://www.w3.org/2000/svg">
<path d="M124.211 61.4346L124.425 61.8864L124.211 61.4346C123.29 61.8711 122.627 62.5098 122.2 63.3657C121.779 64.2085 121.603 65.2305 121.591 66.4166C121.568 68.6575 122.134 71.6387 122.952 75.4318C121.648 75.3335 120.501 74.5096 120.141 73.2807L117.662 64.7969C117.204 63.2308 118.154 61.6376 119.709 61.402C121.735 61.0952 123.81 60.9362 125.922 60.9362C129.416 60.9362 132.808 61.3718 136.047 62.1914C137.567 62.5761 138.358 64.2468 137.759 65.7591L134.858 73.0725C134.844 73.0249 134.828 72.9753 134.813 72.9238C134.783 72.8249 134.751 72.7205 134.718 72.6112C134.424 71.6402 134.013 70.2794 133.409 68.8449C132.077 65.6819 129.727 61.9592 125.396 61.2729C125.005 61.2109 124.586 61.2568 124.211 61.4346ZM139.981 76.4235L143.266 68.1395L142.801 67.9552L143.266 68.1395C143.556 67.4085 144.112 66.8712 144.762 66.5989L145.636 83.9888C144.313 82.5476 142.834 81.2519 141.226 80.1284C140.005 79.276 139.457 77.7449 139.981 76.4235ZM111.943 66.606L114.44 75.1503C114.841 76.5209 114.144 78.0005 112.84 78.7328C112.126 79.134 111.431 79.5671 110.759 80.0301C109.468 80.9199 107.738 80.846 106.693 79.7764L101.836 74.8063V68.7202C103.871 67.2481 106.046 65.9578 108.337 64.873C109.779 64.19 111.478 65.0159 111.943 66.606ZM125.922 143.217C123.544 143.217 121.214 143.016 118.948 142.629V127.913C121.172 128.512 123.51 128.832 125.922 128.832C131.884 128.832 137.391 126.881 141.839 123.584L150.492 135.078C143.636 140.191 135.133 143.217 125.922 143.217Z" fill="#A8ABFF" stroke="#A8ABFF"/>
<path d="M8.47388 36.8112C8.47388 35.7066 9.36931 34.8112 10.4739 34.8112H15.0155C16.1201 34.8112 17.0155 35.7066 17.0155 36.8112V56.1654C14.1631 60.5649 15.3467 66.8733 17.0155 77.5195H8.47388V36.8112Z" fill="#A8ABFF"/>
<path d="M21.2864 28.2695C21.2864 27.165 22.1818 26.2695 23.2864 26.2695H27.828C28.9326 26.2695 29.828 27.165 29.828 28.2695V45.4883C24.2486 47.0771 26.5355 58.5658 29.828 77.5195H27.6926C25.1739 65.7435 23.7627 59.694 21.2864 56.1654V28.2695Z" fill="#A8ABFF"/>
<path d="M34.0989 15.457C34.0989 14.3525 34.9943 13.457 36.0989 13.457H40.6405C41.7451 13.457 42.6405 14.3525 42.6405 15.457V77.5195C39.983 65.4488 38.8493 58.4733 34.0989 47.6237V15.457Z" fill="#A8ABFF"/>
<path d="M46.9114 23.9987C46.9114 22.8941 47.8068 21.9987 48.9114 21.9987H53.453C54.5576 21.9987 55.453 22.8941 55.453 23.9987V65.7747C52.6873 53.6266 50.9127 49.4592 46.9114 51.8945V23.9987Z" fill="#A8ABFF"/>
<path d="M59.7239 47.4883C59.7239 46.3837 60.6193 45.4883 61.7239 45.4883H66.2655C67.3701 45.4883 68.2655 46.3837 68.2655 47.4883V77.5195H59.7239V47.4883Z" fill="#A8ABFF"/>
<path d="M72.5364 34.6758C72.5364 33.5712 73.4318 32.6758 74.5364 32.6758H79.078C80.1826 32.6758 81.078 33.5712 81.078 34.6758V77.5195H72.5364V34.6758Z" fill="#A8ABFF"/>
<path d="M85.3489 19.7279C85.3489 18.6233 86.2443 17.7279 87.3489 17.7279H91.8905C92.9951 17.7279 93.8905 18.6233 93.8905 19.7279V77.5195H85.3489V19.7279Z" fill="#A8ABFF"/>
<path d="M5.27083 99.3737C5.54697 99.3737 5.77083 99.1498 5.77083 98.8737C5.77083 98.5975 5.54697 98.3737 5.27083 98.3737V99.3737ZM2.06771 77.0195C1.79157 77.0195 1.56771 77.2434 1.56771 77.5195C1.56771 77.7957 1.79157 78.0195 2.06771 78.0195V77.0195ZM100.297 78.0195C100.573 78.0195 100.797 77.7957 100.797 77.5195C100.797 77.2434 100.573 77.0195 100.297 77.0195V78.0195ZM14.3125 135.176C14.3125 134.9 14.0886 134.676 13.8125 134.676C13.5364 134.676 13.3125 134.9 13.3125 135.176H14.3125ZM199.812 98.3737C199.536 98.3737 199.312 98.5975 199.312 98.8737C199.312 99.1498 199.536 99.3737 199.812 99.3737V98.3737ZM89.419 139.434L88.9217 139.382L89.419 139.434ZM91.4024 142.514L91.5317 142.031L91.4024 142.514ZM97.9206 144.26L97.7912 144.743H97.7912L97.9206 144.26ZM100.967 142.37L101.461 142.449L100.967 142.37ZM85.7659 109.811L85.509 110.239L85.7659 109.811ZM64.4969 105.643L64.5718 106.137L64.4969 105.643ZM67.5246 117.195L67.4804 116.697L67.5246 117.195ZM98.1989 151.213L98.6492 151.43L98.1989 151.213ZM96.5808 147.88L96.4514 148.363L96.5808 147.88ZM89.9017 146.091L90.0311 145.608L89.9017 146.091ZM86.7914 147.471L86.3595 147.219L86.7914 147.471ZM85.0719 109.024C84.8 108.976 84.5404 109.157 84.492 109.429C84.4435 109.7 84.6247 109.96 84.8965 110.008L85.0719 109.024ZM85.3715 124.23C85.1968 124.016 84.8818 123.984 84.668 124.159C84.4541 124.333 84.4223 124.648 84.5969 124.862L85.3715 124.23ZM73.0096 156.665C72.7383 156.716 72.5598 156.977 72.6111 157.249C72.6623 157.52 72.9238 157.699 73.1951 157.647L73.0096 156.665ZM67.5524 168.793C67.2767 168.778 67.0407 168.989 67.0254 169.264C67.01 169.54 67.2211 169.776 67.4968 169.791L67.5524 168.793ZM34.5466 113.822L34.0555 113.915C34.1062 114.182 34.36 114.359 34.6276 114.315C34.8952 114.271 35.079 114.022 35.0419 113.753L34.5466 113.822ZM27.8576 66.8582L28.3503 66.7727L28.3502 66.7722L27.8576 66.8582ZM39.291 64.6832L39.7791 64.5747L39.779 64.5742L39.291 64.6832ZM48.4268 110.618L47.9355 110.711C47.9846 110.972 48.2289 111.149 48.492 111.114C48.7551 111.08 48.9454 110.845 48.9254 110.581L48.4268 110.618ZM53.7651 57.8946L54.2606 57.8275L53.7651 57.8946ZM66.7413 126.533L66.2481 126.615C66.284 126.832 66.4579 127.001 66.6763 127.029C66.8947 127.058 67.106 126.94 67.1969 126.74L66.7413 126.533ZM72.5693 107.239L73.0628 107.319L73.0628 107.319L72.5693 107.239ZM75.8831 94.6337L76.3128 94.8892L76.3132 94.8885L75.8831 94.6337ZM82.5024 91.5689L82.2595 92.006L82.2604 92.0065L82.5024 91.5689ZM84.3403 99.2477L84.838 99.2959V99.2958L84.3403 99.2477ZM84.3324 99.3297L84.83 99.3782L84.83 99.3778L84.3324 99.3297ZM84.827 112.289L85.326 112.258L85.326 112.257L84.827 112.289ZM73.27 157.486L72.8472 157.219L72.8471 157.219L73.27 157.486ZM65.8515 177.052L66.3494 177.098L66.3495 177.097L65.8515 177.052ZM66.6923 186.51L66.2002 186.599L66.2002 186.599L66.6923 186.51ZM68.4217 195.943L67.9299 196.033L68.4217 195.943ZM65.6544 200.634L65.5057 200.157L65.6544 200.634ZM29.0767 202.09L29.2297 201.614H29.2296L29.0767 202.09ZM26.5051 198.618L27.005 198.613L26.5051 198.618ZM27.8745 175.726L28.3705 175.663L28.3705 175.663L27.8745 175.726ZM22.5165 160.13L22.0594 160.333L22.0596 160.334L22.5165 160.13ZM9.54167 82.8581L9.92973 82.5428L9.54167 82.8581ZM21.7341 118.092L21.2484 118.211C21.3115 118.47 21.566 118.633 21.8273 118.584C22.0887 118.534 22.2655 118.288 22.2295 118.025L21.7341 118.092ZM41.9824 77.5195L41.4923 77.6186L41.9824 77.5195ZM57.416 77.5195L56.9255 77.616L57.416 77.5195ZM61.6194 98.8737L61.1286 98.9694L61.6194 98.8737ZM74.1105 98.8737L74.5913 99.0109L74.1105 98.8737ZM84.3762 98.8737L83.8784 98.8265L84.3762 98.8737ZM63.0816 106.432L62.5906 106.526L63.0816 106.432ZM66.1302 181.655C65.8541 181.655 65.6302 181.879 65.6302 182.155C65.6302 182.431 65.8541 182.655 66.1302 182.655V181.655ZM28.0187 182.155L28.5178 182.186L28.0187 182.155ZM172.592 16.7826L172.092 16.7815L172.592 16.7826ZM175.035 75.88L174.537 75.9281C174.564 76.1984 174.801 76.3985 175.072 76.3787C175.343 76.3588 175.548 76.1264 175.535 75.8551L175.035 75.88ZM170.27 24.4802L169.771 24.5121L169.771 24.5126L170.27 24.4802ZM162.818 2.28023L162.708 1.79242L162.818 2.28023ZM158.689 24.6554L158.189 24.6659V24.6664L158.689 24.6554ZM160.841 75.4944L160.347 75.5704C160.388 75.8337 160.627 76.0189 160.892 75.9918C161.157 75.9646 161.354 75.7346 161.341 75.4686L160.841 75.4944ZM151.326 18.7271L150.838 18.8368L151.326 18.7271ZM143.063 20.586L142.565 20.6353L143.063 20.586ZM146.932 96.4053L146.523 96.6925C146.652 96.8764 146.888 96.9517 147.099 96.8763C147.311 96.801 147.447 96.5936 147.431 96.3694L146.932 96.4053ZM136.678 77.1543L136.211 77.3341L136.211 77.3341L136.678 77.1543ZM130.456 64.4704L130.079 64.7985L130.079 64.7991L130.456 64.4704ZM123.32 62.6518L123.667 63.0116L123.668 63.0109L123.32 62.6518ZM123.379 71.2179L123.855 71.0659L123.379 71.2179ZM123.406 71.3033L122.93 71.4554L122.93 71.4558L123.406 71.3033ZM126.028 85.1927L125.535 85.2744L125.535 85.2745L126.028 85.1927ZM148.022 130.743L148.39 130.405L148.39 130.405L148.022 130.743ZM159.879 149.937L159.402 150.086L159.402 150.087L159.879 149.937ZM161.329 160.178L161.828 160.148L161.828 160.148L161.329 160.178ZM161.939 171.067L161.44 171.095L161.939 171.067ZM165.536 174.953L165.592 174.456H165.592L165.536 174.953ZM201.515 168.516L201.782 168.939L201.515 168.516ZM203.165 164.609L202.676 164.71L203.165 164.609ZM196.3 140.261L195.803 140.314L195.803 140.314L196.3 140.261ZM197.752 122.51L198.246 122.591L198.246 122.591L197.752 122.51ZM199.774 38.9515L199.274 38.9722L199.774 38.9515ZM192.12 34.8112L191.662 34.6095V34.6095L192.12 34.8112ZM188.452 77.6334L187.954 77.6823C187.98 77.9471 188.209 78.1451 188.474 78.1329C188.74 78.1207 188.95 77.9026 188.952 77.6365L188.452 77.6334ZM181.11 16.0591L180.623 16.1689L181.11 16.0591ZM184.646 41.7838L184.149 41.8409L184.646 41.7838ZM158.853 30.5404L159.353 30.5241L158.853 30.5404ZM114.177 82.2904C116.26 82.2904 117.948 83.9786 117.948 86.0612H118.948C118.948 83.4263 116.812 81.2904 114.177 81.2904V82.2904ZM117.948 86.0612V156.53H118.948V86.0612H117.948ZM117.948 156.53V177.884H118.948V156.53H117.948ZM117.948 177.884C117.948 179.967 116.26 181.655 114.177 181.655V182.655C116.812 182.655 118.948 180.519 118.948 177.884H117.948ZM18.0833 181.655C16.0008 181.655 14.3125 179.967 14.3125 177.884H13.3125C13.3125 180.519 15.4485 182.655 18.0833 182.655V181.655ZM1.5 4.91536C1.5 2.83279 3.18826 1.14453 5.27083 1.14453V0.144531C2.63597 0.144531 0.5 2.2805 0.5 4.91536H1.5ZM5.27083 1.14453H97.0937V0.144531H5.27083V1.14453ZM97.0937 1.14453C99.1763 1.14453 100.865 2.83279 100.865 4.91536H101.865C101.865 2.28051 99.7286 0.144531 97.0937 0.144531V1.14453ZM100.865 94.6029C100.865 96.6854 99.1763 98.3737 97.0937 98.3737V99.3737C99.7286 99.3737 101.865 97.2377 101.865 94.6029H100.865ZM5.27083 98.3737C3.18826 98.3737 1.5 96.6854 1.5 94.6029H0.5C0.5 97.2377 2.63597 99.3737 5.27083 99.3737V98.3737ZM1.5 94.6029V4.91536H0.5V94.6029H1.5ZM133.896 4.91536C133.896 2.83279 135.584 1.14453 137.667 1.14453V0.144531C135.032 0.144531 132.896 2.2805 132.896 4.91536H133.896ZM137.667 1.14453H201.729V0.144531H137.667V1.14453ZM201.729 1.14453C203.812 1.14453 205.5 2.83279 205.5 4.91536H206.5C206.5 2.28051 204.364 0.144531 201.729 0.144531V1.14453ZM205.5 4.91536V94.6029H206.5V4.91536H205.5ZM205.5 94.6029C205.5 96.6854 203.812 98.3737 201.729 98.3737V99.3737C204.364 99.3737 206.5 97.2377 206.5 94.6029H205.5ZM100.865 4.91536V30.5404H101.865V4.91536H100.865ZM100.865 30.5404V81.7904H101.865V30.5404H100.865ZM100.865 81.7904V94.6029H101.865V81.7904H100.865ZM101.365 82.2904H114.177V81.2904H101.365V82.2904ZM14.3125 177.884V135.176H13.3125V177.884H14.3125ZM101.365 31.0404H133.396V30.0404H101.365V31.0404ZM133.896 30.5404V4.91536H132.896V30.5404H133.896ZM201.729 98.3737H199.812V99.3737H201.729V98.3737ZM89.9163 139.486C89.991 138.771 90.0293 138.046 90.0293 137.311H89.0293C89.0293 138.011 88.9928 138.702 88.9217 139.382L89.9163 139.486ZM91.273 142.997L97.7912 144.743L98.05 143.777L91.5317 142.031L91.273 142.997ZM100.865 137.311C100.865 139.006 100.731 140.67 100.474 142.292L101.461 142.449C101.727 140.775 101.865 139.059 101.865 137.311H100.865ZM85.509 110.239C94.7082 115.748 100.865 125.811 100.865 137.311H101.865C101.865 125.445 95.5111 115.063 86.0228 109.382L85.509 110.239ZM64.5718 106.137C65.3093 106.025 66.8601 106.023 68.4822 106.053C70.0706 106.082 71.7101 106.143 72.5362 106.143V105.143C71.7182 105.143 70.1267 105.083 68.5008 105.053C66.9086 105.024 65.2618 105.021 64.422 105.148L64.5718 106.137ZM69.3333 116.615C68.7089 116.615 68.0909 116.643 67.4804 116.697L67.5688 117.693C68.1499 117.642 68.7384 117.615 69.3333 117.615V116.615ZM97.7485 150.995C92.6529 161.557 81.8433 168.842 69.3333 168.842V169.842C82.2416 169.842 93.3931 162.324 98.6492 151.43L97.7485 150.995ZM96.7101 147.397L90.0311 145.608L89.7724 146.574L96.4514 148.363L96.7101 147.397ZM90.0311 145.608C88.5661 145.216 87.0913 145.964 86.3595 147.219L87.2233 147.723C87.761 146.801 88.8033 146.315 89.7724 146.574L90.0311 145.608ZM98.6492 151.43C99.4574 149.755 98.4459 147.862 96.7101 147.397L96.4514 148.363C97.643 148.683 98.2572 149.941 97.7485 150.995L98.6492 151.43ZM97.7912 144.743C99.4388 145.184 101.185 144.189 101.461 142.449L100.474 142.292C100.299 143.391 99.1794 144.08 98.05 143.777L97.7912 144.743ZM88.9217 139.382C88.7568 140.962 89.6669 142.567 91.273 142.997L91.5317 142.031C90.4708 141.747 89.7945 140.653 89.9163 139.486L88.9217 139.382ZM86.0228 109.382C85.7195 109.2 85.398 109.082 85.0719 109.024L84.8965 110.008C85.1035 110.045 85.3103 110.12 85.509 110.239L86.0228 109.382ZM90.0293 137.311C90.0293 132.35 88.2828 127.795 85.3715 124.23L84.5969 124.862C87.3678 128.255 89.0293 132.589 89.0293 137.311H90.0293ZM69.3333 168.842C68.7356 168.842 68.1418 168.826 67.5524 168.793L67.4968 169.791C68.1047 169.825 68.717 169.842 69.3333 169.842V168.842ZM23.3842 60.5575C24.4479 64.8123 27.1141 78.1418 29.518 90.428C30.7191 96.5667 31.8535 102.438 32.6876 106.776C33.1046 108.944 33.4466 110.729 33.6843 111.972C33.8032 112.593 33.896 113.079 33.959 113.41C33.9906 113.575 34.0147 113.701 34.0309 113.786C34.039 113.829 34.0451 113.861 34.0493 113.883C34.0513 113.893 34.0529 113.902 34.0539 113.907C34.0544 113.91 34.0548 113.912 34.0551 113.913C34.0552 113.914 34.0553 113.914 34.0554 113.915C34.0554 113.915 34.0555 113.915 34.5466 113.822C35.0378 113.728 35.0378 113.728 35.0377 113.728C35.0376 113.727 35.0375 113.727 35.0374 113.726C35.0371 113.725 35.0367 113.723 35.0362 113.72C35.0352 113.714 35.0336 113.706 35.0316 113.695C35.0275 113.674 35.0213 113.642 35.0132 113.599C34.997 113.514 34.9729 113.387 34.9413 113.222C34.8782 112.892 34.7854 112.406 34.6665 111.784C34.4287 110.541 34.0867 108.756 33.6696 106.587C32.8353 102.249 31.7008 96.376 30.4994 90.236C28.0985 77.9649 25.426 64.6018 24.3543 60.3149L23.3842 60.5575ZM34.5466 113.822C35.0419 113.753 35.0419 113.753 35.0419 113.753C35.0418 113.752 35.0417 113.752 35.0417 113.751C35.0415 113.75 35.0412 113.748 35.0409 113.746C35.0402 113.741 35.0392 113.733 35.0378 113.723C35.035 113.703 35.031 113.674 35.0256 113.635C35.0148 113.557 34.9987 113.441 34.9777 113.289C34.9358 112.986 34.8742 112.54 34.7954 111.971C34.6378 110.833 34.4116 109.2 34.137 107.223C33.5878 103.27 32.8451 97.9382 32.0713 92.4268C30.5246 81.4108 28.8508 69.6583 28.3503 66.7727L27.365 66.9436C27.8619 69.8086 29.5326 81.5378 31.081 92.5659C31.8548 98.0766 32.5973 103.408 33.1465 107.361C33.4211 109.338 33.6473 110.97 33.8048 112.108C33.8836 112.677 33.9452 113.123 33.9872 113.426C34.0081 113.577 34.0242 113.694 34.035 113.772C34.0404 113.811 34.0445 113.84 34.0472 113.86C34.0486 113.87 34.0496 113.878 34.0503 113.883C34.0506 113.885 34.0509 113.887 34.0511 113.888C34.0511 113.889 34.0512 113.889 34.0513 113.89C34.0513 113.89 34.0513 113.89 34.5466 113.822ZM28.3502 66.7722C27.9443 64.4459 26.9556 59.1445 26.8612 54.4269C26.8138 52.0613 26.9936 49.8988 27.552 48.3453C27.8298 47.5724 28.1899 46.9831 28.6316 46.5901C29.0628 46.2064 29.5949 45.9883 30.2755 45.9883V44.9883C29.3545 44.9883 28.5846 45.2933 27.9668 45.8431C27.3593 46.3836 26.9232 47.1383 26.6109 48.0071C25.9891 49.737 25.8134 52.0489 25.8614 54.4469C25.9576 59.2568 26.9631 64.6403 27.3651 66.9441L28.3502 66.7722ZM30.2755 45.9883C31.6627 45.9883 32.8267 46.7531 33.8324 48.0966C34.8422 49.4458 35.6458 51.3221 36.2975 53.3944C37.6067 57.5577 38.2396 62.2688 38.803 64.7921L39.779 64.5742C39.246 62.1874 38.5743 57.301 37.2514 53.0944C36.5871 50.9818 35.7427 48.98 34.6329 47.4974C33.5189 46.0091 32.0914 44.9883 30.2755 44.9883V45.9883ZM45.7234 57.8946C45.7234 55.3743 46.1841 53.7093 46.8264 52.727C47.4512 51.7715 48.2369 51.4656 49.02 51.5825C49.8442 51.7055 50.7727 52.3141 51.5754 53.4196C52.3717 54.5163 53.0123 56.0629 53.2696 57.9617L54.2606 57.8275C53.984 55.7862 53.29 54.0789 52.3846 52.832C51.4856 51.5939 50.3454 50.7692 49.1677 50.5934C47.9489 50.4115 46.7993 50.9412 45.9894 52.1798C45.197 53.3917 44.7234 55.2794 44.7234 57.8946H45.7234ZM67.1969 126.74C69.9929 120.562 71.9758 114.011 73.0628 107.319L72.0758 107.159C71.003 113.763 69.0458 120.229 66.2858 126.327L67.1969 126.74ZM76.3132 94.8885C76.9618 93.7939 77.9646 92.7698 79.0619 92.1791C80.1555 91.5904 81.2776 91.4604 82.2595 92.006L82.7452 91.1318C81.3695 90.3675 79.8703 90.6083 78.5879 91.2986C77.309 91.9869 76.1809 93.1501 75.4529 94.3788L76.3132 94.8885ZM83.8426 99.1996L83.8347 99.2815L84.83 99.3778L84.838 99.2959L83.8426 99.1996ZM83.8347 99.2811C83.4091 103.643 84.0595 108.06 84.3279 112.32L85.326 112.257C85.0503 107.883 84.4148 103.634 84.83 99.3782L83.8347 99.2811ZM72.8471 157.219C68.9115 163.454 66.0231 169.588 65.3535 177.007L66.3495 177.097C66.9988 169.902 69.7974 163.924 73.6928 157.753L72.8471 157.219ZM65.3536 177.007C65.0579 180.249 65.6418 183.488 66.2002 186.599L67.1844 186.422C66.6217 183.288 66.0681 180.183 66.3494 177.098L65.3536 177.007ZM66.2002 186.599C66.7769 189.805 67.3538 192.894 67.9299 196.033L68.9135 195.852C68.3367 192.71 67.7607 189.626 67.1844 186.422L66.2002 186.599ZM67.9299 196.033C68.2623 197.844 67.2379 199.617 65.5057 200.157L65.8031 201.112C68.0436 200.414 69.3323 198.134 68.9135 195.852L67.9299 196.033ZM65.5057 200.157C54.0587 203.723 40.3258 205.179 29.2297 201.614L28.9237 202.566C40.2911 206.219 54.2514 204.71 65.8031 201.112L65.5057 200.157ZM29.2296 201.614C27.9148 201.191 27.02 199.989 27.005 198.613L26.0051 198.624C26.0248 200.435 27.204 202.013 28.9237 202.566L29.2296 201.614ZM28.3705 175.663C27.6584 170.095 25.2044 164.944 22.9733 159.927L22.0596 160.334C24.3128 165.4 26.6893 170.4 27.3786 175.789L28.3705 175.663ZM22.9735 159.928C18.4269 149.683 13.8055 133.052 10.1829 118.283C6.56315 103.526 3.95085 90.6726 3.4177 88.0068L2.43711 88.2029C2.97167 90.8757 5.58714 103.745 9.21166 118.521C12.8333 133.286 17.4725 149.998 22.0594 160.333L22.9735 159.928ZM3.4177 88.0068C3.16132 86.7249 3.12295 85.3911 3.28436 84.2127C3.44707 83.0249 3.80584 82.0431 4.30085 81.4237C4.7746 80.8309 5.35455 80.5801 6.0796 80.75C6.86247 80.9335 7.89588 81.6253 9.1536 83.1734L9.92973 82.5428C8.62226 80.9335 7.41282 80.0353 6.30772 79.7764C5.14479 79.5039 4.19163 79.9585 3.51965 80.7994C2.86893 81.6137 2.46935 82.794 2.29361 84.077C2.11656 85.3696 2.15964 86.8156 2.43711 88.2029L3.4177 88.0068ZM9.1536 83.1734C10.3801 84.6829 11.7595 87.6041 13.1444 91.2068C14.5215 94.7893 15.8812 98.9829 17.0829 102.987C18.2842 106.99 19.3258 110.796 20.0671 113.603C20.4377 115.006 20.7332 116.158 20.9359 116.96C21.0373 117.361 21.1155 117.674 21.1683 117.887C21.1947 117.993 21.2148 118.074 21.2282 118.129C21.2349 118.156 21.24 118.177 21.2434 118.191C21.2451 118.197 21.2463 118.203 21.2472 118.206C21.2476 118.208 21.2479 118.209 21.2481 118.21C21.2482 118.21 21.2483 118.211 21.2483 118.211C21.2484 118.211 21.2484 118.211 21.7341 118.092C22.2198 117.974 22.2198 117.974 22.2198 117.973C22.2197 117.973 22.2196 117.973 22.2195 117.972C22.2193 117.971 22.2189 117.97 22.2185 117.968C22.2176 117.965 22.2163 117.959 22.2146 117.952C22.2111 117.938 22.206 117.917 22.1992 117.89C22.1856 117.835 22.1654 117.753 22.1388 117.646C22.0857 117.432 22.0071 117.117 21.9054 116.715C21.7019 115.91 21.4056 114.754 21.0339 113.347C20.2908 110.534 19.2462 106.716 18.0407 102.699C16.8356 98.6842 15.4678 94.4639 14.0778 90.848C12.6956 87.2522 11.2684 84.1905 9.92973 82.5428L9.1536 83.1734ZM15.8276 61.5039C15.8276 59.1491 16.2213 57.435 16.8054 56.3128C17.3881 55.1935 18.1267 54.7126 18.8333 54.6621C19.5534 54.6107 20.4133 54.9926 21.2541 55.9736C22.0907 56.9496 22.8633 58.4737 23.3842 60.5575L24.3543 60.3149C23.8075 58.1278 22.9785 56.4488 22.0134 55.3228C21.0524 54.2017 19.9104 53.5827 18.762 53.6647C17.6001 53.7477 16.6037 54.5347 15.9184 55.8511C15.2347 57.1646 14.8276 59.054 14.8276 61.5039H15.8276ZM21.7341 118.092C22.2295 118.025 22.2295 118.025 22.2295 118.025C22.2295 118.024 22.2294 118.024 22.2294 118.024C22.2293 118.023 22.2292 118.022 22.229 118.021C22.2286 118.018 22.228 118.014 22.2272 118.008C22.2257 117.997 22.2234 117.98 22.2203 117.957C22.2142 117.913 22.2052 117.846 22.1932 117.758C22.1694 117.582 22.1342 117.322 22.0887 116.986C21.9977 116.312 21.8657 115.33 21.7013 114.099C21.3726 111.635 20.9148 108.172 20.3983 104.173C19.3652 96.1751 18.0978 86.0356 17.1595 77.4651L16.1655 77.5739C17.1048 86.1542 18.3732 96.3012 19.4065 104.302C19.9232 108.302 20.3813 111.767 20.7101 114.231C20.8745 115.463 21.0067 116.445 21.0977 117.119C21.1432 117.457 21.1785 117.717 21.2023 117.892C21.2143 117.98 21.2234 118.047 21.2295 118.092C21.2325 118.115 21.2348 118.132 21.2364 118.143C21.2371 118.149 21.2377 118.153 21.2381 118.156C21.2383 118.157 21.2385 118.158 21.2386 118.159C21.2386 118.159 21.2386 118.16 21.2387 118.16C21.2387 118.16 21.2387 118.16 21.7341 118.092ZM17.1595 77.4651C16.3771 70.318 15.8276 64.2952 15.8276 61.5039H14.8276C14.8276 64.3611 15.3849 70.4431 16.1655 77.5739L17.1595 77.4651ZM2.06771 78.0195H16.6625V77.0195H2.06771V78.0195ZM38.8029 64.7916C39.5722 68.2536 40.5117 72.7696 41.4923 77.6186L42.4725 77.4204C41.4914 72.5694 40.5505 68.0461 39.7791 64.5747L38.8029 64.7916ZM41.4923 77.6186C43.0061 85.1039 44.6169 93.3769 45.8493 99.7791C46.4655 102.98 46.9871 105.713 47.3546 107.646C47.5383 108.612 47.6836 109.379 47.7829 109.903C47.8325 110.166 47.8707 110.368 47.8964 110.504C47.9093 110.572 47.9191 110.624 47.9256 110.659C47.9289 110.676 47.9314 110.689 47.933 110.698C47.9338 110.702 47.9344 110.706 47.9349 110.708C47.9351 110.709 47.9352 110.71 47.9353 110.71C47.9354 110.711 47.9354 110.711 47.9354 110.711C47.9355 110.711 47.9355 110.711 48.4268 110.618C48.9182 110.526 48.9182 110.526 48.9181 110.526C48.9181 110.526 48.9181 110.525 48.918 110.525C48.9179 110.524 48.9178 110.524 48.9175 110.523C48.9171 110.52 48.9165 110.517 48.9157 110.513C48.914 110.504 48.9116 110.491 48.9083 110.473C48.9017 110.439 48.8919 110.387 48.879 110.319C48.8533 110.182 48.8151 109.98 48.7654 109.717C48.6661 109.193 48.5208 108.426 48.337 107.459C47.9693 105.526 47.4476 102.792 46.8313 99.5901C45.5986 93.1866 43.9872 84.9101 42.4725 77.4204L41.4923 77.6186ZM41.9824 78.0195H46.1392V77.0195H41.9824V78.0195ZM48.4268 110.618C48.9254 110.581 48.9254 110.581 48.9254 110.581C48.9254 110.581 48.9254 110.58 48.9254 110.58C48.9253 110.58 48.9253 110.579 48.9252 110.578C48.925 110.575 48.9248 110.572 48.9244 110.568C48.9238 110.559 48.9228 110.547 48.9215 110.53C48.919 110.495 48.9152 110.445 48.9101 110.378C48.9001 110.244 48.8852 110.046 48.866 109.788C48.8275 109.272 48.7714 108.518 48.7012 107.566C48.5607 105.66 48.3635 102.96 48.1367 99.7815C47.6832 93.4235 47.1114 85.1505 46.6382 77.4887L45.6401 77.5503C46.1136 85.2167 46.6857 93.4932 47.1393 99.8526C47.3661 103.032 47.5633 105.733 47.7039 107.639C47.7741 108.592 47.8302 109.346 47.8687 109.862C47.888 110.12 47.9029 110.319 47.9129 110.453C47.918 110.52 47.9218 110.57 47.9244 110.605C47.9256 110.622 47.9266 110.635 47.9273 110.643C47.9276 110.647 47.9278 110.651 47.928 110.653C47.9281 110.654 47.9281 110.655 47.9282 110.655C47.9282 110.656 47.9282 110.656 47.9282 110.656C47.9282 110.656 47.9282 110.656 48.4268 110.618ZM46.6382 77.4887C46.1214 69.121 45.7234 61.5017 45.7234 57.8946H44.7234C44.7234 61.5389 45.1238 69.1917 45.6401 77.5503L46.6382 77.4887ZM57.416 78.0195H100.297V77.0195H57.416V78.0195ZM53.2696 57.9617C53.6708 60.9226 55.1089 68.3829 56.9255 77.616L57.9066 77.423C56.0865 68.1716 54.6566 60.7506 54.2606 57.8275L53.2696 57.9617ZM56.9255 77.616C58.2114 84.1525 59.6889 91.5866 61.1286 98.9694L62.1101 98.778C60.6703 91.3943 59.1921 83.9566 57.9066 77.423L56.9255 77.616ZM74.1105 98.3737H61.6194V99.3737H74.1105V98.3737ZM73.0628 107.319C73.5209 104.496 73.8317 101.674 74.5913 99.0109L73.6297 98.7365C72.8486 101.474 72.5226 104.405 72.0757 107.159L73.0628 107.319ZM74.5913 99.0109C75.0054 97.5594 75.549 96.1738 76.3128 94.8892L75.4533 94.3781C74.6344 95.7552 74.0608 97.2255 73.6297 98.7365L74.5913 99.0109ZM97.0937 98.3737H84.3762V99.3737H97.0937V98.3737ZM82.2604 92.0065C83.2435 92.5502 83.7253 93.5174 83.9207 94.7586C84.1178 96.01 84.0088 97.4523 83.8784 98.8265L84.874 98.9209C85.0032 97.559 85.128 95.9964 84.9085 94.6031C84.6875 93.1996 84.1025 91.8825 82.7443 91.1314L82.2604 92.0065ZM83.8784 98.8265C83.8665 98.9519 83.8545 99.0762 83.8426 99.1997L84.838 99.2958C84.8499 99.1725 84.862 99.0473 84.874 98.9209L83.8784 98.8265ZM61.1286 98.9694C61.6236 101.507 62.114 104.039 62.5906 106.526L63.5727 106.338C63.0959 103.85 62.6053 101.317 62.1101 98.778L61.1286 98.9694ZM64.422 105.148C63.7139 105.255 63.1204 105.612 62.6998 106.109L63.4634 106.755C63.7345 106.434 64.1132 106.206 64.5718 106.137L64.422 105.148ZM62.5906 106.526C63.225 109.836 63.8349 113.067 64.398 116.126L65.3815 115.945C64.8178 112.883 64.2075 109.65 63.5727 106.338L62.5906 106.526ZM64.398 116.126C65.1022 119.951 65.7332 123.506 66.2481 126.615L67.2346 126.452C66.7184 123.335 66.0863 119.773 65.3815 115.945L64.398 116.126ZM64.4825 116.325C65.1697 117.29 66.367 117.8 67.5688 117.693L67.4804 116.697C66.6036 116.775 65.7622 116.398 65.297 115.745L64.4825 116.325ZM84.3279 112.32C85.3004 127.83 81.3159 143.615 73.1059 156.806L73.9549 157.335C82.2748 143.967 86.3114 127.975 85.326 112.258L84.3279 112.32ZM73.1059 156.806C73.0201 156.944 72.9339 157.082 72.8472 157.219L73.6927 157.753C73.7806 157.614 73.868 157.474 73.9549 157.335L73.1059 156.806ZM73.1951 157.647C73.3419 157.62 73.4881 157.59 73.6338 157.56L73.427 156.581C73.2884 156.611 73.1493 156.638 73.0096 156.665L73.1951 157.647ZM73.6338 157.56C79.4299 156.335 84.3295 152.685 87.2233 147.723L86.3595 147.219C83.6044 151.943 78.9404 155.416 73.427 156.581L73.6338 157.56ZM114.177 181.655H66.1302V182.655H114.177V181.655ZM28.0187 181.655H18.0833V182.655H28.0187V181.655ZM27.005 198.613C26.9756 195.907 27.2652 193.19 27.6083 190.447C27.9501 187.714 28.3467 184.946 28.5178 182.186L27.5197 182.124C27.3511 184.843 26.961 187.565 26.616 190.323C26.2722 193.071 25.9749 195.846 26.0051 198.624L27.005 198.613ZM28.5178 182.186C28.6522 180.018 28.6488 177.841 28.3705 175.663L27.3786 175.789C27.6465 177.887 27.6516 179.997 27.5197 182.124L28.5178 182.186ZM170.769 24.4483C170.606 21.9087 170.291 15.9721 169.235 10.8441C168.709 8.2867 167.988 5.87913 166.981 4.18773C166.476 3.34012 165.879 2.63899 165.167 2.19923C164.44 1.75041 163.615 1.5886 162.708 1.79242L162.928 2.76804C163.571 2.62331 164.13 2.73446 164.642 3.05012C165.168 3.37483 165.663 3.92968 166.122 4.69954C167.041 6.24309 167.735 8.51645 168.256 11.0458C169.295 16.0914 169.607 21.9519 169.771 24.5121L170.769 24.4483ZM162.708 1.79242C160.929 2.19276 159.793 3.60236 159.078 5.41283C158.362 7.22326 158.025 9.52744 157.888 11.9144C157.615 16.6722 158.134 21.9998 158.189 24.6659L159.189 24.645C159.131 21.8506 158.615 16.6878 158.886 11.9717C159.021 9.6216 159.35 7.44295 160.008 5.7805C160.665 4.11811 161.609 3.06481 162.928 2.76804L162.708 1.79242ZM151.814 18.6174C151.191 15.8463 150.286 13.9586 149.242 12.8547C148.177 11.7293 146.93 11.397 145.766 11.8672C144.654 12.3166 143.75 13.4488 143.181 14.9488C142.607 16.4632 142.346 18.4177 142.565 20.6353L143.561 20.5368C143.354 18.448 143.605 16.6517 144.116 15.3034C144.633 13.9408 145.388 13.0985 146.141 12.7944C146.842 12.5111 147.667 12.6462 148.515 13.5421C149.383 14.4593 150.233 16.1465 150.838 18.8368L151.814 18.6174ZM147.341 96.1181C143.209 90.2289 139.765 83.7721 137.144 76.9744L136.211 77.3341C138.861 84.2074 142.343 90.7362 146.523 96.6925L147.341 96.1181ZM137.144 76.9745C135.455 72.591 133.967 67.7363 130.833 64.1418L130.079 64.7991C133.065 68.2227 134.479 72.8405 136.211 77.3341L137.144 76.9745ZM130.834 64.1424C129.842 63.0018 128.476 62.011 127.072 61.5564C125.661 61.0997 124.132 61.1681 122.972 62.2927L123.668 63.0109C124.474 62.2293 125.57 62.1214 126.764 62.5078C127.964 62.8963 129.183 63.7679 130.079 64.7985L130.834 64.1424ZM122.973 62.292C121.787 63.4357 121.575 65.0382 121.735 66.6285C121.895 68.2198 122.44 69.9197 122.903 71.37L123.855 71.0659C123.385 69.5926 122.877 67.9961 122.73 66.5285C122.582 65.0599 122.807 63.8412 123.667 63.0116L122.973 62.292ZM122.903 71.37L122.93 71.4554L123.882 71.1513L123.855 71.0659L122.903 71.37ZM122.93 71.4558C124.353 75.9002 124.757 80.5728 125.535 85.2744L126.521 85.1111C125.76 80.5122 125.335 75.688 123.882 71.1509L122.93 71.4558ZM125.535 85.2745C128.368 102.361 136.223 118.634 147.653 131.081L148.39 130.405C137.094 118.104 129.324 102.011 126.521 85.111L125.535 85.2745ZM147.653 131.081C152.9 136.799 157.047 142.556 159.402 150.086L160.357 149.788C157.94 142.062 153.687 136.178 148.39 130.405L147.653 131.081ZM160.83 160.208C161.048 163.904 161.236 167.461 161.44 171.095L162.439 171.039C162.235 167.41 162.047 163.847 161.828 160.148L160.83 160.208ZM161.44 171.095C161.566 173.327 163.233 175.199 165.481 175.45L165.592 174.456C163.855 174.263 162.538 172.811 162.439 171.039L161.44 171.095ZM165.481 175.45C177.59 176.8 191.592 175.374 201.782 168.939L201.248 168.093C191.325 174.36 177.583 175.793 165.592 174.456L165.481 175.45ZM201.782 168.939C203.275 167.996 204.011 166.231 203.655 164.507L202.676 164.71C202.949 166.031 202.384 167.376 201.248 168.093L201.782 168.939ZM203.655 164.507C202.794 160.343 201.285 156.313 199.899 152.324C198.507 148.318 197.235 144.34 196.797 140.208L195.803 140.314C196.254 144.57 197.562 148.643 198.954 152.652C200.352 156.677 201.831 160.627 202.676 164.71L203.655 164.507ZM196.797 140.209C196.173 134.312 197.279 128.465 198.246 122.591L197.259 122.428C196.3 128.254 195.161 134.253 195.803 140.314L196.797 140.209ZM198.246 122.591C200.209 110.609 200.775 91.1587 200.822 73.9954C200.868 56.8208 200.396 41.8923 200.273 38.9309L199.274 38.9722C199.396 41.9205 199.868 56.8342 199.822 73.9927C199.775 91.1626 199.207 110.537 197.259 122.429L198.246 122.591ZM200.273 38.9309C200.21 37.4044 199.908 35.8672 199.431 34.5409C198.957 33.2244 198.295 32.0688 197.48 31.3527C197.068 30.991 196.601 30.7274 196.087 30.63C195.566 30.5313 195.032 30.6105 194.51 30.878C193.493 31.3991 192.538 32.6217 191.662 34.6095L192.577 35.0129C193.427 33.0848 194.262 32.1283 194.966 31.768C195.304 31.5949 195.613 31.5579 195.901 31.6125C196.197 31.6685 196.506 31.8279 196.82 32.1039C197.456 32.6631 198.044 33.6417 198.49 34.8793C198.931 36.107 199.215 37.5438 199.274 38.9722L200.273 38.9309ZM191.662 34.6095C190.764 36.6467 190.098 40.3755 189.593 44.7489C189.086 49.146 188.735 54.2662 188.492 59.1343C188.249 64.0037 188.114 68.6272 188.039 72.0329C188.002 73.7359 187.98 75.1348 187.968 76.1082C187.961 76.5948 187.957 76.9751 187.955 77.2339C187.954 77.3633 187.953 77.4622 187.952 77.529C187.952 77.5623 187.952 77.5876 187.952 77.6046C187.952 77.6131 187.952 77.6195 187.952 77.6238C187.952 77.6259 187.952 77.6276 187.952 77.6287C187.952 77.6292 187.952 77.6296 187.952 77.6299C187.952 77.6302 187.952 77.6304 188.452 77.6334C188.952 77.6365 188.952 77.6364 188.952 77.6362C188.952 77.6359 188.952 77.6355 188.952 77.635C188.952 77.634 188.952 77.6324 188.952 77.6303C188.952 77.6262 188.952 77.6199 188.952 77.6115C188.952 77.5948 188.952 77.5698 188.952 77.5367C188.953 77.4705 188.954 77.3721 188.955 77.2433C188.957 76.9856 188.961 76.6066 188.968 76.1212C188.98 75.1504 189.002 73.7544 189.039 72.0547C189.113 68.655 189.248 64.0414 189.49 59.1842C189.733 54.3257 190.083 49.2298 190.587 44.8636C191.094 40.4735 191.749 36.8916 192.577 35.0129L191.662 34.6095ZM181.598 15.9494C181.014 13.3533 180.173 11.4464 179.206 10.2102C178.243 8.97826 177.093 8.34512 175.926 8.51307C174.771 8.67929 173.812 9.60155 173.157 10.9908C172.496 12.3909 172.097 14.3467 172.092 16.7815L173.092 16.7838C173.097 14.4443 173.482 12.6452 174.061 11.4176C174.645 10.1793 175.384 9.60138 176.068 9.50288C176.741 9.40612 177.572 9.74376 178.419 10.8261C179.262 11.9044 180.057 13.6554 180.623 16.1689L181.598 15.9494ZM159.402 150.087C160.058 152.176 160.378 154.356 160.577 156.575L161.573 156.485C161.371 154.235 161.043 151.974 160.356 149.787L159.402 150.087ZM160.577 156.575C160.685 157.781 160.757 158.994 160.83 160.208L161.828 160.148C161.756 158.937 161.683 157.709 161.573 156.485L160.577 156.575ZM161.075 156.03H118.448V157.03H161.075V156.03ZM188.452 77.6334C188.949 77.5846 188.949 77.5845 188.949 77.5844C188.949 77.5842 188.949 77.584 188.949 77.5837C188.949 77.5831 188.949 77.5823 188.949 77.5811C188.949 77.5788 188.948 77.5754 188.948 77.5709C188.947 77.5618 188.946 77.5482 188.944 77.5302C188.94 77.4941 188.935 77.4404 188.928 77.3696C188.914 77.228 188.893 77.0181 188.866 76.7449C188.812 76.1986 188.732 75.399 188.631 74.3862C188.427 72.3606 188.136 69.4817 187.783 66.0684C187.077 59.2422 186.125 50.2777 185.143 41.7267L184.149 41.8409C185.131 50.3866 186.082 59.3469 186.788 66.1713C187.141 69.5834 187.432 72.4613 187.636 74.4861C187.737 75.4985 187.817 76.2976 187.871 76.8436C187.898 77.1166 187.919 77.3263 187.933 77.4678C187.94 77.5385 187.945 77.5921 187.949 77.6281C187.95 77.6461 187.952 77.6596 187.953 77.6687C187.953 77.6732 187.953 77.6766 187.954 77.6789C187.954 77.68 187.954 77.6809 187.954 77.6815C187.954 77.6817 187.954 77.682 187.954 77.6821C187.954 77.6822 187.954 77.6823 188.452 77.6334ZM184.146 34.8112V41.7838H185.146V34.8112H184.146ZM185.143 41.7267C184.748 38.2963 184.349 34.932 183.959 31.7987L182.966 31.9224C183.356 35.0517 183.755 38.4127 184.149 41.8409L185.143 41.7267ZM183.959 31.7987C183.076 24.7138 182.236 18.7831 181.598 15.9494L180.623 16.1689C181.247 18.9456 182.082 24.8246 182.966 31.9224L183.959 31.7987ZM183.101 32.206C183.749 32.8835 184.146 33.8005 184.146 34.8112H185.146C185.146 33.5329 184.642 32.3711 183.824 31.515L183.101 32.206ZM172.092 16.7815C172.086 19.2463 172.245 24.3489 172.484 30.5596L173.483 30.5212C173.244 24.3052 173.086 19.2243 173.092 16.7838L172.092 16.7815ZM172.484 30.5596C172.829 39.5498 173.342 50.8864 173.769 59.9746C173.982 64.5189 174.174 68.5014 174.312 71.3478C174.381 72.7711 174.437 73.9103 174.476 74.6937C174.495 75.0854 174.51 75.3882 174.52 75.593C174.525 75.6954 174.529 75.7734 174.532 75.8257C174.533 75.8519 174.534 75.8717 174.535 75.8849C174.535 75.8915 174.535 75.8965 174.536 75.8998C174.536 75.9015 174.536 75.9027 174.536 75.9036C174.536 75.904 174.536 75.9043 174.536 75.9045C174.536 75.9047 174.536 75.9048 175.035 75.88C175.535 75.8551 175.535 75.855 175.535 75.8548C175.535 75.8546 175.535 75.8543 175.535 75.8539C175.534 75.8531 175.534 75.8518 175.534 75.8502C175.534 75.8468 175.534 75.8419 175.534 75.8353C175.533 75.8221 175.532 75.8023 175.531 75.7762C175.528 75.7239 175.524 75.646 175.519 75.5436C175.509 75.3388 175.494 75.0361 175.475 74.6445C175.436 73.8613 175.38 72.7223 175.311 71.2993C175.173 68.4533 174.981 64.4714 174.768 59.9277C174.341 50.8401 173.828 39.507 173.483 30.5212L172.484 30.5596ZM170.77 31.0404H172.983V30.0404H170.77V31.0404ZM175.035 75.88C175.533 75.8319 175.533 75.8318 175.533 75.8316C175.533 75.8313 175.533 75.831 175.533 75.8305C175.533 75.8295 175.532 75.8281 175.532 75.8262C175.532 75.8224 175.531 75.8168 175.531 75.8092C175.529 75.7942 175.527 75.7717 175.524 75.742C175.518 75.6825 175.51 75.594 175.499 75.4779C175.476 75.2459 175.443 74.9037 175.401 74.4631C175.316 73.582 175.193 72.3074 175.042 70.7339C174.74 67.5867 174.324 63.2434 173.869 58.4588C172.959 48.8891 171.893 37.5558 171.268 30.4963L170.272 30.5844C170.897 37.6476 171.963 48.9841 172.873 58.5535C173.328 63.3385 173.744 67.6821 174.047 70.8295C174.198 72.4032 174.321 73.6778 174.405 74.559C174.448 74.9996 174.481 75.3419 174.503 75.574C174.515 75.69 174.523 75.7786 174.529 75.8381C174.532 75.8678 174.534 75.8903 174.535 75.9054C174.536 75.9129 174.537 75.9186 174.537 75.9224C174.537 75.9243 174.537 75.9257 174.537 75.9267C174.537 75.9271 174.537 75.9275 174.537 75.9277C174.537 75.928 174.537 75.9281 175.035 75.88ZM171.268 30.4963C171.017 27.6489 170.837 25.5031 170.769 24.4478L169.771 24.5126C169.84 25.5816 170.021 27.7395 170.272 30.5844L171.268 30.4963ZM158.189 24.6664C158.228 26.417 158.284 28.4053 158.354 30.5566L159.353 30.5241C159.283 28.3752 159.227 26.3906 159.189 24.6445L158.189 24.6664ZM158.354 30.5566C158.633 39.1728 159.13 50.4144 159.557 59.5001C159.771 64.0434 159.967 68.0483 160.11 70.9174C160.181 72.3519 160.239 73.5026 160.279 74.2946C160.3 74.6906 160.315 74.9969 160.326 75.2043C160.331 75.308 160.335 75.3869 160.338 75.4399C160.339 75.4665 160.34 75.4865 160.341 75.4999C160.341 75.5066 160.342 75.5117 160.342 75.515C160.342 75.5167 160.342 75.518 160.342 75.5188C160.342 75.5192 160.342 75.5196 160.342 75.5198C160.342 75.52 160.342 75.5201 160.841 75.4944C161.341 75.4686 161.341 75.4685 161.341 75.4683C161.341 75.4681 161.341 75.4678 161.341 75.4674C161.341 75.4665 161.341 75.4653 161.34 75.4636C161.34 75.4602 161.34 75.4552 161.34 75.4485C161.339 75.4351 161.338 75.4151 161.337 75.3887C161.334 75.3357 161.33 75.2568 161.325 75.1532C161.314 74.946 161.298 74.6398 161.278 74.2439C161.238 73.4522 161.18 72.3019 161.109 70.8677C160.966 67.9993 160.77 63.9953 160.556 59.4532C160.129 50.3682 159.632 39.1327 159.353 30.5241L158.354 30.5566ZM153.561 31.0404H158.853V30.0404H153.561V31.0404ZM160.841 75.4944C161.336 75.4183 161.336 75.4182 161.335 75.418C161.335 75.4178 161.335 75.4174 161.335 75.417C161.335 75.4162 161.335 75.4149 161.335 75.4133C161.334 75.4099 161.333 75.4049 161.332 75.3983C161.33 75.385 161.327 75.3651 161.323 75.3388C161.315 75.2863 161.303 75.208 161.287 75.1052C161.256 74.8997 161.209 74.5959 161.148 74.2031C161.026 73.4175 160.849 72.2758 160.627 70.8511C160.182 68.0018 159.558 64.0206 158.839 59.4932C157.4 50.439 155.579 39.1974 154.053 30.4544L153.068 30.6263C154.593 39.3614 156.412 50.5968 157.851 59.6501C158.571 64.1764 159.195 68.1566 159.639 71.0052C159.861 72.4295 160.038 73.5709 160.16 74.3561C160.22 74.7488 160.267 75.0524 160.299 75.2578C160.315 75.3605 160.327 75.4387 160.335 75.4912C160.339 75.5174 160.342 75.5373 160.344 75.5505C160.345 75.5572 160.346 75.5621 160.346 75.5655C160.347 75.5671 160.347 75.5684 160.347 75.5692C160.347 75.5696 160.347 75.5699 160.347 75.5701C160.347 75.5704 160.347 75.5704 160.841 75.4944ZM154.053 30.4544C153.163 25.3566 152.372 21.0975 151.814 18.6174L150.838 18.8368C151.39 21.2902 152.178 25.5268 153.068 30.6263L154.053 30.4544ZM133.396 31.0404H143.684V30.0404H133.396V31.0404ZM142.565 20.6353C142.747 22.4713 142.955 25.968 143.184 30.5653L144.183 30.5154C143.954 25.9235 143.745 22.4015 143.561 20.5368L142.565 20.6353ZM143.184 30.5653C144.023 47.3418 145.154 78.6468 146.433 96.4411L147.431 96.3694C146.153 78.5882 145.023 47.321 144.183 30.5154L143.184 30.5653Z" fill="#000577"/>
</svg>
