<svg width="35" height="45" viewBox="0 0 35 45" fill="none" xmlns="http://www.w3.org/2000/svg">
<path d="M34.3977 8.11799V43.482C34.3977 44.3102 33.7466 44.9814 32.9435 44.9814H2.4054C1.60224 44.9814 0.951172 44.3102 0.951172 43.482V1.49941C0.951172 0.671294 1.60224 0 2.4054 0H26.5244C26.91 0 27.2799 0.157962 27.5526 0.439183L33.9718 7.05777C34.2445 7.3389 34.3977 7.72028 34.3977 8.11799Z" fill="#395662"/>
<path d="M34.3981 8.11797V37.8592C34.3981 40.3435 32.4566 42.3574 30.0617 42.3574H8.37983C5.98492 42.3574 4.04346 40.3435 4.04346 37.8592V0H26.572C26.9553 0 27.323 0.157961 27.5941 0.439182L33.9747 7.05774C34.2458 7.33888 34.3981 7.72025 34.3981 8.11797Z" fill="#4398D1"/>
<path d="M6.76855 28.4875H12.5853V34.485H6.76855V28.4875Z" fill="#EFD66C"/>
<path d="M22.7637 22.4902H28.5804V28.4877H22.7637V22.4902Z" fill="#EFD66C"/>
<path d="M12.584 22.4902H22.7634V34.4851H12.584V22.4902Z" fill="#FFE773"/>
<path d="M22.7637 28.4875H28.5804V34.485H22.7637V28.4875Z" fill="#EFD66C"/>
<path d="M6.76855 22.4902H12.5853V28.4877H6.76855V22.4902Z" fill="#EFD66C"/>
<path d="M28.5815 19.4919V22.4906H6.76855V19.4919C6.76855 18.2502 7.74562 17.2428 8.94985 17.2428H26.4002C27.6045 17.2428 28.5815 18.2501 28.5815 19.4919Z" fill="#FFEC8F"/>
<path d="M28.5815 34.4857V37.4843C28.5815 38.7258 27.6045 39.7332 26.4002 39.7332H8.94985C7.74562 39.7332 6.76855 38.7258 6.76855 37.4843V34.4857H28.5815Z" fill="#FFEC8F"/>
<path d="M22.7637 26.9882H28.5804V29.9869H22.7637V26.9882Z" fill="#FFEC8F"/>
<path d="M6.76855 26.9882H12.5853V29.9869H6.76855V26.9882Z" fill="#FFEC8F"/>
</svg>
