<svg width="55" height="43" viewBox="0 0 55 43" fill="none" xmlns="http://www.w3.org/2000/svg">
<path d="M51.3372 30.5185L54.5371 10.8907C54.8699 8.89895 53.4591 7.02486 51.3856 6.7043L8.20668 0.0466945C6.1333 -0.272943 4.18252 1.08232 3.84978 3.07409L2.31543 12.2533V30.4043L51.3372 30.5185Z" fill="#146AA8"/>
<path d="M51.3854 6.70447L39.1216 4.81409C30.8849 16.9211 17.5697 25.3067 7.3584 30.4164L51.3369 30.5187L54.5368 10.8909C54.8696 8.89903 53.4588 7.02503 51.3854 6.70447Z" fill="#126099"/>
<path d="M3.80273 11.3401H47.534C49.634 11.3401 51.3367 12.9758 51.3367 14.9931V38.738C51.3367 40.7553 49.634 42.391 47.534 42.391H3.80273C1.70269 42.3909 0 40.7553 0 38.738V14.9931C0 12.9758 1.70269 11.3401 3.80273 11.3401Z" fill="#4398D1"/>
<path d="M47.5339 11.3401H46.7733C37.7989 26.6455 21.0299 37.1443 10.793 42.3909H47.5339C49.6339 42.3909 51.3366 40.7552 51.3366 38.7379V14.9931C51.3366 12.9758 49.6339 11.3401 47.5339 11.3401Z" fill="#3E8CC7"/>
<path d="M14.2607 15.9066H4.75391V23.2126H14.2607V15.9066Z" fill="#FDB62F"/>
<path d="M7.60632 18.6462H4.75391V20.4728H7.60632V18.6462Z" fill="#FD7B2F"/>
<path d="M14.2606 18.6462H11.4082V20.4728H14.2606V18.6462Z" fill="#FD7B2F"/>
<path d="M41.8305 37.8245C44.4558 37.8245 46.5839 35.7801 46.5839 33.2582C46.5839 30.7363 44.4558 28.6919 41.8305 28.6919C39.2053 28.6919 37.0771 30.7363 37.0771 33.2582C37.0771 35.7801 39.2053 37.8245 41.8305 37.8245Z" fill="#FDB62F"/>
<path d="M36.1255 37.8245C38.7507 37.8245 40.8788 35.7801 40.8788 33.2582C40.8788 30.7363 38.7507 28.6919 36.1255 28.6919C33.5002 28.6919 31.3721 30.7363 31.3721 33.2582C31.3721 35.7801 33.5002 37.8245 36.1255 37.8245Z" fill="#DE4C3C"/>
<path d="M9.50745 29.6051H3.80273V31.4319H9.50745V29.6051Z" fill="#87CED9"/>
<path d="M19.0143 29.6051H13.3096V31.4319H19.0143V29.6051Z" fill="#87CED9"/>
<path d="M28.5211 29.6051H22.8164V31.4319H28.5211V29.6051Z" fill="#87CED9"/>
<path d="M28.5204 35.0851H3.80273V36.9115H28.5204V35.0851Z" fill="#87CED9"/>
<path d="M35.1759 15.9066H33.2744V19.5599H35.1759V15.9066Z" fill="#87CED9"/>
<path d="M38.9787 15.9066H37.0771V19.5599H38.9787V15.9066Z" fill="#87CED9"/>
<path d="M42.7814 15.9066H40.8799V19.5599H42.7814V15.9066Z" fill="#87CED9"/>
<path d="M46.5842 15.9066H44.6826V19.5599H46.5842V15.9066Z" fill="#87CED9"/>
</svg>
